<svg width="813" height="683" viewBox="0 0 813 683" fill="none" xmlns="http://www.w3.org/2000/svg">
<g clip-path="url(#clip0_1159_9)">
<path d="M595.8 415.4C577.1 415.4 558.5 415.7 539.8 415.3C508.7 414.7 485 400.7 469 374.1C451.9 345.7 435.4 317.1 418.5 288.6C412.8 278.9 400.1 279 394.5 288.6C378.1 316.8 362.1 345.1 345.3 373.1C329 400.2 304.9 415 272.9 415.3C234.9 415.6 196.9 415.4 158.9 415.4C156.2 415.4 152.9 416.2 151.3 413C149.9 410.2 151.9 408 153.3 405.7C199.9 327.4 246.6 249.2 293.2 170.9C325.2 117.2 357.2 63.4 389.2 9.70002C397 -3.29998 416.2 -3.09998 424.1 10.1C452.8 58.3 481.4 106.5 510 154.6C550 221.9 590.1 289.2 630.2 356.5C640 372.9 649.8 389.3 659.7 405.7C661.1 408 662.9 410.2 661.4 413C659.8 416 656.9 415.4 654.3 415.4C634.7 415.5 615.2 415.5 595.8 415.4Z" fill="#BD4544"/>
<path d="M105.5 683C72.7004 683 39.8004 683 7.00043 683C4.70043 683 2.10043 683.4 0.700433 681.1C-0.899567 678.5 0.800433 676.4 2.10043 674.2C21.3004 643.6 40.2004 612.8 59.6004 582.5C75.7004 557.5 98.6004 544.1 128.8 544.2C178 544.2 227.1 544.5 276.3 544.1C310.1 543.8 336.3 528.9 354.6 500.4C370.1 476.3 385.4 452.2 400.8 428.1C404.4 422.6 408.8 422.7 412.4 428.2C427.6 452 442.7 475.9 458 499.7C476.7 528.9 503.5 543.9 538.1 544.1C586.8 544.4 635.4 544.3 684.1 544.1C714.4 544 737.2 557.4 753.2 582.5C772.5 612.8 791.4 643.4 810.5 673.8C811.8 675.9 813.6 678 812.2 680.7C810.8 683.4 808 683 805.5 683C741.7 683 677.9 683.3 614 682.8C582.8 682.6 559.7 667.2 543.4 641C531.9 622.5 521.1 603.5 508.9 585.4C492.1 560.6 468.1 546.9 438 546C414.7 545.3 391.3 544.2 368.1 546.6C339.6 549.6 317.6 564.3 302.2 588.4C290.6 606.7 279.9 625.5 268.1 643.6C251.4 669.1 227.8 682.8 197 682.9C166.4 683 136 682.9 105.5 683Z" fill="#BD4544"/>
</g>
<defs>
<clipPath id="clip0_1159_9">
<rect width="812.5" height="683" fill="white"/>
</clipPath>
</defs>
</svg>
