<svg width="867" height="770" viewBox="0 0 867 770" fill="none" xmlns="http://www.w3.org/2000/svg">
<g clip-path="url(#clip0_1159_13)">
<path d="M149.801 769.5C117.001 769.5 84.1007 769.5 51.3007 769.5C43.5007 769.5 35.7007 769.1 27.9007 767.7C8.30069 764.3 -4.59931 743.3 1.50069 724.3C5.30069 712.3 11.9007 701.7 18.1007 690.8C68.0007 602.7 118.001 514.6 168.001 426.5C239.601 300.4 311.101 174.2 382.701 48.1C389.301 36.4 395.601 24.4 404.001 13.8C418.601 -4.6 444.401 -4.6 459.001 13.8C464.901 21.2 469.601 29.5 474.301 37.8C506.401 94 538.401 150.2 570.701 206.4C586.701 234.3 591.701 263.7 582.501 294.8C577.801 310.7 569.001 324.8 560.901 339.1C512.701 424.4 464.501 509.7 416.201 594.8C393.601 634.6 371.501 674.6 348.301 714C332.701 740.3 310.701 758.2 281.001 765.9C265.701 769.8 249.901 769.4 234.301 769.5C206.101 769.6 178.001 769.5 149.801 769.5Z" fill="#BD4544"/>
<path d="M689.7 769.5C648 769.5 606.4 769.5 564.7 769.5C557.2 769.5 549.7 769.1 542.3 767.9C521.4 764.5 508.3 742.8 515.4 722.8C520.3 709.1 528.2 696.9 535.5 684.4C573.9 618.4 612.3 552.5 650.8 486.6C654.6 480.1 658.6 473.8 663.5 468.1C676.7 452.4 701.6 452 715 467.5C724.8 478.7 731.7 492 739.1 504.7C777.7 570.4 816 636.2 854.4 702C857.3 707 859.7 712.4 862.5 717.5C874.4 739.6 858.8 767.6 832.2 768.6C823.5 768.9 814.9 769.5 806.2 769.5C767.4 769.6 728.6 769.5 689.7 769.5Z" fill="#BD4544"/>
</g>
<defs>
<clipPath id="clip0_1159_13">
<rect width="866.5" height="769.6" fill="white"/>
</clipPath>
</defs>
</svg>
